<svg viewBox="0 0 24 24"  xmlns="http://www.w3.org/2000/svg" style="display:none">

	<symbol viewBox="0 0 20 20" id="theme-to-dark">
		<path d="M17.1812 2.57812V3.86671H10.7383V5.15529H18.4699V3.86671V2.57812H17.1812Z"/>
		<path d="M7.30195 1.28906H5.1543V2.57764H7.30195V1.28906Z"/>
		<path d="M5.15577 2.57812H3.86719V3.86671H5.15577V2.57812Z"/>
		<path d="M3.86671 3.86719H2.57812V6.01484H3.86671V3.86719Z"/>
		<path d="M3.86671 13.7461H2.57812V15.8937H3.86671V13.7461Z"/>
		<path d="M5.15577 15.8945H3.86719V17.1831H5.15577V15.8945Z"/>
		<path d="M7.30195 17.1797H5.1543V18.4683H7.30195V17.1797Z"/>
		<path d="M15.0324 0H7.30078V1.28858H15.0324V0Z"/>
		<path d="M15.0324 18.4688H7.30078V19.7573H15.0324V18.4688Z"/>
		<path d="M2.57764 6.01172H1.28906V13.7433H2.57764V6.01172Z"/>
		<path d="M17.1809 1.28906H15.0332V2.57764H17.1809V1.28906Z"/>
		<path d="M10.7383 14.6055V15.8941H17.1812V17.1826H18.4699V14.6055H10.7383Z"/>
		<path d="M8.15968 7.73047H6.87109V12.0258H8.15968V7.73047Z"/>
		<path d="M9.44874 12.0273H8.16016V13.3159H9.44874V12.0273Z"/>
		<path d="M10.7378 13.3164H9.44922V14.605H10.7378V13.3164Z"/>
		<path d="M9.44874 6.44141H8.16016V7.72999H9.44874V6.44141Z"/>
		<path d="M10.7378 5.15625H9.44922V6.44483H10.7378V5.15625Z"/>
		<path d="M17.1809 17.1797H15.0332V18.4683H17.1809V17.1797Z"/>
	</symbol>

	<symbol viewBox="0 0 14 8" id="select-arrow">
		<path fill-rule="evenodd" clip-rule="evenodd" d="M0.644531 1.35164L1.35164 0.644531L6.99808 6.29098L12.6445 0.644531L13.3516 1.35164L6.99808 7.70519L0.644531 1.35164Z"/>
	</symbol>

	<symbol viewBox="0 0 6 4" id="drop-down-arrow">
		<path fill-rule="evenodd" clip-rule="evenodd" d="M0.648438 1.35164L1.35554 0.644531L3.00199 2.29098L4.64844 0.644531L5.35554 1.35164L3.00199 3.70519L0.648438 1.35164Z"/>
	</symbol>

	<symbol viewBox="0 0 9 14" id="slider-prev-arrow">
		<path fill-rule="evenodd" clip-rule="evenodd" d="M3.41436 7.00008L8.70726 1.70718L7.29304 0.292969L0.585938 7.00008L7.29304 13.7072L8.70726 12.293L3.41436 7.00008Z"/>
	</symbol>

	<symbol viewBox="0 0 9 14" id="slider-next-arrow">
		<path fill-rule="evenodd" clip-rule="evenodd" d="M5.58564 6.99992L0.292743 12.2928L1.70696 13.707L8.41406 6.99992L1.70695 0.292819L0.292742 1.70703L5.58564 6.99992Z"/>
	</symbol>

	<symbol viewBox="0 0 11 20" id="post-prev-arrow">
		<path fill-rule="evenodd" clip-rule="evenodd" d="M9.64836 19.3516L10.3555 18.6445L1.70902 9.99801L10.3555 1.35156L9.64836 0.644457L0.294808 9.99801L9.64836 19.3516Z"/>
	</symbol>

	<symbol viewBox="0 0 11 20" id="post-next-arrow">
		<path fill-rule="evenodd" clip-rule="evenodd" d="M1.35554 19.3516L0.648437 18.6445L9.29488 9.99801L0.648436 1.35156L1.35554 0.644457L10.7091 9.99801L1.35554 19.3516Z"/>
	</symbol>

	<symbol viewBox="0 0 17 14" id="check">
		<path fill-rule="evenodd" clip-rule="evenodd" d="M16.7072 1.70718L5.00008 13.4143L0.292969 8.70718L1.70718 7.29297L5.00008 10.5859L15.293 0.292969L16.7072 1.70718Z"/>
	</symbol>

	<symbol viewBox="0 0 24 24" id="twitter">
		<path d="M22 6.82692C21.2857 7.11538 20.4694 7.30769 19.6531 7.40385C20.4694 6.92308 21.1837 6.15385 21.4898 5.28846C20.6735 5.76923 19.8572 6.05769 18.8367 6.25C18.1225 5.48077 17 5 15.8775 5C13.6326 5 11.7959 6.73077 11.7959 8.84615C11.7959 9.13461 11.7959 9.42307 11.898 9.71153C8.53061 9.51922 5.46938 7.98077 3.42857 5.67307C3.12244 6.25 2.91836 6.92307 2.91836 7.59615C2.91836 8.9423 3.63265 10.0962 4.7551 10.7692C4.04081 10.7692 3.42857 10.5769 2.91836 10.2885C2.91836 12.1154 4.34693 13.75 6.18367 14.0385C5.87754 14.1346 5.46939 14.1346 5.06123 14.1346C4.7551 14.1346 4.55102 14.1346 4.2449 14.0385C4.7551 15.5769 6.28572 16.7308 8.12245 16.7308C6.69388 17.7885 4.95919 18.3654 3.02041 18.3654C2.71429 18.3654 2.40816 18.3654 2 18.2692C3.83674 19.3269 5.97959 20 8.32653 20C15.8776 20 19.9592 14.1346 19.9592 9.03846V8.55769C20.7755 8.26923 21.4898 7.59615 22 6.82692Z"/>
	</symbol>

	<symbol viewBox="0 0 24 24" id="linkedIn">
		<path d="M20 14.1981V20H16.7713V14.5519C16.7713 13.2075 16.3004 12.2877 15.157 12.2877C14.2825 12.2877 13.7444 12.9245 13.5426 13.4906C13.4753 13.7028 13.4081 13.9858 13.4081 14.3396V20H10.1794C10.1794 20 10.2466 10.8019 10.1794 9.88208H13.4081V11.2972C13.8117 10.5896 14.6188 9.59906 16.3004 9.59906C18.3856 9.59906 20 11.0849 20 14.1981ZM6.81614 5C5.73991 5 5 5.7783 5 6.76887C5 7.75943 5.67264 8.53774 6.74888 8.53774C7.89238 8.53774 8.56502 7.75943 8.56502 6.76887C8.63229 5.70755 7.95964 5 6.81614 5ZM5.20179 20H8.43049V9.88208H5.20179V20Z"/>
	</symbol>

	<symbol viewBox="0 0 24 24" id="instagram">
		<path d="M12 5.44578C14.1205 5.44578 14.4096 5.44578 15.2771 5.44578C16.0482 5.44578 16.4337 5.63855 16.7229 5.73494C17.1084 5.92771 17.3976 6.0241 17.6867 6.31325C17.9759 6.60241 18.1687 6.89157 18.2651 7.27711C18.3614 7.56627 18.4578 7.95181 18.5542 8.72289C18.5542 9.59036 18.5542 9.78313 18.5542 12C18.5542 14.2169 18.5542 14.4096 18.5542 15.2771C18.5542 16.0482 18.3614 16.4337 18.2651 16.7229C18.0723 17.1084 17.9759 17.3976 17.6867 17.6867C17.3976 17.9759 17.1084 18.1687 16.7229 18.2651C16.4337 18.3614 16.0482 18.4578 15.2771 18.5542C14.4096 18.5542 14.2169 18.5542 12 18.5542C9.78313 18.5542 9.59036 18.5542 8.72289 18.5542C7.95181 18.5542 7.56627 18.3614 7.27711 18.2651C6.89157 18.0723 6.60241 17.9759 6.31325 17.6867C6.0241 17.3976 5.83133 17.1084 5.73494 16.7229C5.63855 16.4337 5.54217 16.0482 5.44578 15.2771C5.44578 14.4096 5.44578 14.2169 5.44578 12C5.44578 9.78313 5.44578 9.59036 5.44578 8.72289C5.44578 7.95181 5.63855 7.56627 5.73494 7.27711C5.92771 6.89157 6.0241 6.60241 6.31325 6.31325C6.60241 6.0241 6.89157 5.83133 7.27711 5.73494C7.56627 5.63855 7.95181 5.54217 8.72289 5.44578C9.59036 5.44578 9.87952 5.44578 12 5.44578ZM12 4C9.78313 4 9.59036 4 8.72289 4C7.85542 4 7.27711 4.19277 6.79518 4.38554C6.31325 4.57831 5.83133 4.86747 5.3494 5.3494C4.86747 5.83133 4.6747 6.21687 4.38554 6.79518C4.19277 7.27711 4.09639 7.85542 4 8.72289C4 9.59036 4 9.87952 4 12C4 14.2169 4 14.4096 4 15.2771C4 16.1446 4.19277 16.7229 4.38554 17.2048C4.57831 17.6867 4.86747 18.1687 5.3494 18.6506C5.83133 19.1325 6.21687 19.3253 6.79518 19.6145C7.27711 19.8072 7.85542 19.9036 8.72289 20C9.59036 20 9.87952 20 12 20C14.1205 20 14.4096 20 15.2771 20C16.1446 20 16.7229 19.8072 17.2048 19.6145C17.6867 19.4217 18.1687 19.1325 18.6506 18.6506C19.1325 18.1687 19.3253 17.7831 19.6145 17.2048C19.8072 16.7229 19.9036 16.1446 20 15.2771C20 14.4096 20 14.1205 20 12C20 9.87952 20 9.59036 20 8.72289C20 7.85542 19.8072 7.27711 19.6145 6.79518C19.4217 6.31325 19.1325 5.83133 18.6506 5.3494C18.1687 4.86747 17.7831 4.6747 17.2048 4.38554C16.7229 4.19277 16.1446 4.09639 15.2771 4C14.4096 4 14.2169 4 12 4Z"/>
		<path d="M12 7.85542C9.68675 7.85542 7.85542 9.68675 7.85542 12C7.85542 14.3133 9.68675 16.1446 12 16.1446C14.3133 16.1446 16.1446 14.3133 16.1446 12C16.1446 9.68675 14.3133 7.85542 12 7.85542ZM12 14.6988C10.5542 14.6988 9.30121 13.5422 9.30121 12C9.30121 10.5542 10.4578 9.30121 12 9.30121C13.4458 9.30121 14.6988 10.4578 14.6988 12C14.6988 13.4458 13.4458 14.6988 12 14.6988Z"/>
		<path d="M16.241 8.72289C16.7733 8.72289 17.2048 8.29136 17.2048 7.75904C17.2048 7.22671 16.7733 6.79518 16.241 6.79518C15.7086 6.79518 15.2771 7.22671 15.2771 7.75904C15.2771 8.29136 15.7086 8.72289 16.241 8.72289Z"/>
	</symbol>

	<symbol viewBox="0 0 24 24" id="facebook">
		<path d="M13.5085 12.5101H16.6724L17.1691 9.27647H13.5079V7.50914C13.5079 6.16584 13.9441 4.97468 15.1931 4.97468H17.2V2.15278C16.8474 2.10487 16.1016 2 14.6925 2C11.75 2 10.0249 3.5634 10.0249 7.12525V9.27647H7V12.5101H10.0249V21.3979C10.6239 21.4885 11.2307 21.55 11.8536 21.55C12.4166 21.55 12.9661 21.4982 13.5085 21.4244V12.5101Z"/>
	</symbol>

	<symbol viewBox="0 0 24 24" id="telegram">
		<path d="M20.15 5.51189L17.5954 18.8484C17.5954 18.8484 17.238 19.7731 16.2561 19.3296L10.3619 14.6497L10.3346 14.6359C11.1307 13.8956 17.3045 8.14726 17.5744 7.8867C17.9921 7.48316 17.7328 7.24292 17.2478 7.54775L8.12827 13.545L4.60999 12.3192C4.60999 12.3192 4.05632 12.1152 4.00305 11.6717C3.94909 11.2276 4.62821 10.9873 4.62821 10.9873L18.9712 5.16061C18.9712 5.16061 20.15 4.62424 20.15 5.51189V5.51189Z"/>
	</symbol>

	<symbol viewBox="0 0 24 24" id="etc">
		<circle cx="3.90476" cy="11.9048" r="1.90476"/>
		<circle cx="12.4751" cy="11.9048" r="1.90476"/>
		<circle cx="20.0962" cy="11.9048" r="1.90476"/>
	</symbol>

	<symbol viewBox="0 0 20 20" id="theme-to-light">
		<path d="M16.1102 2.89062H14.8711V4.12974H16.1102V2.89062Z"/>
		<path d="M17.3485 1.65234H16.1094V2.89146H17.3485V1.65234Z"/>
		<path d="M4.12974 2.89062H2.89062V4.12974H4.12974V2.89062Z"/>
		<path d="M2.89146 1.65234H1.65234V2.89146H2.89146V1.65234Z"/>
		<path d="M4.12974 14.8711H2.89062V16.1102H4.12974V14.8711Z"/>
		<path d="M2.89146 16.1094H1.65234V17.3485H2.89146V16.1094Z"/>
		<path d="M16.1102 14.8711H14.8711V16.1102H16.1102V14.8711Z"/>
		<path d="M17.3485 16.1094H16.1094V17.3485H17.3485V16.1094Z"/>
		<path fill-rule="evenodd" clip-rule="evenodd" d="M19 7.84782V6.6087H16.1087H14.8696V5.36958V4.13042H12.3913V0H11.1522V2.8913H7.84782V0H6.6087V4.13042H4.13042V6.6087H0V7.84782H2.89153V11.1522H0V12.3913H4.13042V14.8696H6.6087V16.1087V19H7.84782V16.1087H11.1522V19H12.3913V14.8696H14.8696V12.3913H19V11.1522H16.1088V7.84782H19ZM9.5 4H11V4.20703C11.6028 4.37753 12.1635 4.64823 12.6631 5H14V6.33692C14.3518 6.83645 14.6225 7.39719 14.793 8H15V9.5V11H14.793C14.6225 11.6028 14.3518 12.1635 14 12.6631V14H12.6631C12.1635 14.3518 11.6028 14.6225 11 14.793V15H9.5H8V14.793C7.39719 14.6225 6.83645 14.3518 6.33692 14H5V12.6631C4.64823 12.1635 4.37753 11.6028 4.20703 11H4V9.5V8H4.20703C4.37753 7.39719 4.64823 6.83645 5 6.33692V6H5.25716C5.95881 5.1504 6.91072 4.51512 8 4.20703V4H9.5Z"/>
		<path fill-rule="evenodd" clip-rule="evenodd" d="M16 9.5C16 13.0899 13.0899 16 9.5 16C5.91015 16 3 13.0899 3 9.5C3 5.91015 5.91015 3 9.5 3C13.0899 3 16 5.91015 16 9.5ZM9.5 15C12.5376 15 15 12.5376 15 9.5C15 6.46243 12.5376 4 9.5 4C6.46243 4 4 6.46243 4 9.5C4 12.5376 6.46243 15 9.5 15Z"/>
	</symbol>
		
</svg>